<?xml version="1.0" standalone="no"?>
<!DOCTYPE svg PUBLIC "-//W3C//DTD SVG 20010904//EN"
 "http://www.w3.org/TR/2001/REC-SVG-20010904/DTD/svg10.dtd">
<svg version="1.0" xmlns="http://www.w3.org/2000/svg"
 width="150.000000pt" height="150.000000pt" viewBox="0 0 150.000000 150.000000"
 preserveAspectRatio="xMidYMid meet">

<g transform="translate(0.000000,150.000000) scale(0.100000,-0.100000)"
fill="#000000" stroke="none">
<path d="M1121 1146 c-9 -11 -6 -15 14 -18 32 -7 42 7 16 21 -14 8 -22 7 -30
-3z"/>
<path d="M1220 1009 c0 -5 5 -7 10 -4 6 3 10 8 10 11 0 2 -4 4 -10 4 -5 0 -10
-5 -10 -11z"/>
<path d="M185 1000 c-3 -5 -1 -10 4 -10 6 0 11 5 11 10 0 6 -2 10 -4 10 -3 0
-8 -4 -11 -10z"/>
<path d="M280 940 c-9 -6 -10 -10 -3 -10 6 0 15 5 18 10 8 12 4 12 -15 0z"/>
<path d="M196 893 c-4 -8 -6 -22 -6 -30 0 -12 3 -13 14 -4 8 7 21 11 30 9 14
-3 16 0 16 21 0 16 -49 19 -54 4z"/>
<path d="M1055 821 c-34 -21 -110 -105 -104 -116 2 -3 -7 -13 -21 -20 -16 -9
-19 -14 -9 -15 21 0 44 20 63 55 9 18 15 23 16 14 1 -44 69 -49 91 -6 11 19
10 20 -3 10 -8 -7 -19 -9 -23 -5 -5 4 -6 2 -2 -3 7 -14 -36 -14 -45 -1 -13 19
-8 27 10 17 28 -15 46 2 38 35 -6 27 -5 28 9 10 13 -17 15 -17 21 -3 3 9 2 23
-3 31 -8 14 -12 13 -38 -3z"/>
<path d="M255 780 c-17 -19 -17 -20 9 -30 36 -13 43 -13 50 6 9 23 7 31 -4 14
-7 -12 -12 -12 -22 -2 -9 9 -9 12 0 12 7 0 12 5 12 10 0 17 -26 11 -45 -10z"/>
<path d="M29 747 c6 -14 8 -27 5 -30 -7 -7 18 -57 29 -57 5 0 6 8 2 18 -4 9
-11 31 -16 49 -6 18 -14 35 -19 38 -6 4 -7 -3 -1 -18z"/>
<path d="M120 728 c0 -9 5 -20 10 -23 13 -8 13 5 0 25 -8 13 -10 13 -10 -2z"/>
<path d="M920 616 c-12 -14 -37 -28 -54 -32 -25 -5 -27 -8 -13 -13 17 -6 17
-8 3 -20 -9 -7 -13 -17 -10 -22 3 -5 -2 -9 -10 -9 -8 0 -24 -9 -34 -21 -18
-18 -24 -19 -62 -9 -37 10 -43 9 -55 -7 -17 -22 -11 -30 10 -13 9 7 18 10 22
6 3 -3 1 -6 -6 -6 -7 0 -11 -5 -9 -12 4 -12 22 -17 74 -22 17 -2 36 -6 42 -10
13 -8 26 10 17 24 -11 17 15 11 83 -21 37 -17 74 -33 82 -34 8 -2 15 -4 15 -5
0 -1 209 -11 235 -11 8 1 35 4 60 8 81 14 110 50 109 135 l0 53 -15 -45 c-23
-72 -43 -92 -103 -98 -50 -4 -62 3 -40 25 7 7 13 26 14 44 2 17 0 28 -4 23 -3
-5 -14 -15 -23 -22 -11 -9 -6 6 14 43 31 58 33 88 2 38 -36 -58 -87 -114 -99
-110 -6 3 -18 1 -26 -3 -11 -7 -9 -10 6 -15 62 -20 54 -25 -36 -20 -96 4 -176
24 -214 52 -15 12 -16 14 -3 10 20 -7 63 25 70 50 3 10 1 27 -3 38 -7 18 -8
18 -9 -5 -1 -23 -2 -23 -9 -5 -6 14 -4 23 6 29 11 6 32 -8 77 -53 65 -65 79
-70 114 -45 31 22 27 36 -5 18 -16 -7 -32 -14 -36 -14 -5 0 -37 29 -72 65 -35
36 -67 65 -72 65 -5 0 -20 -11 -33 -24z m-10 -66 c13 -8 13 -10 -2 -10 -9 0
-20 5 -23 10 -8 13 5 13 25 0z"/>
<path d="M485 576 c16 -52 40 -92 61 -100 19 -7 96 23 88 35 -3 5 -9 7 -14 4
-4 -3 -14 3 -21 11 -8 9 -30 27 -49 40 -19 13 -45 31 -57 40 l-21 15 13 -45z"/>
</g>
</svg>
