<?xml version="1.0" standalone="no"?>
<!DOCTYPE svg PUBLIC "-//W3C//DTD SVG 20010904//EN"
 "http://www.w3.org/TR/2001/REC-SVG-20010904/DTD/svg10.dtd">
<svg version="1.0" xmlns="http://www.w3.org/2000/svg"
 width="150.000000pt" height="150.000000pt" viewBox="0 0 150.000000 150.000000"
 preserveAspectRatio="xMidYMid meet">

<g transform="translate(0.000000,150.000000) scale(0.100000,-0.100000)"
fill="#000000" stroke="none">
<path d="M1017 1153 c-14 -13 -6 -23 18 -23 28 0 34 15 9 24 -19 7 -19 7 -27
-1z"/>
<path d="M165 909 c-8 -24 3 -39 14 -20 5 7 14 10 20 7 18 -12 34 4 20 20 -17
21 -47 17 -54 -7z"/>
<path d="M923 821 c-69 -70 -102 -111 -91 -111 13 0 58 47 58 62 0 7 9 2 19
-11 14 -18 24 -22 44 -18 27 7 44 34 21 34 -7 0 -11 -3 -9 -7 3 -4 -5 -7 -17
-6 -12 0 -23 6 -25 12 -2 6 7 10 19 10 19 -1 23 4 21 27 -1 15 2 27 8 27 5 0
9 -5 9 -11 0 -5 4 -8 9 -5 11 7 2 46 -10 46 -4 0 -30 -22 -56 -49z"/>
<path d="M1416 846 c10 -8 21 -12 24 -10 5 6 -21 24 -34 24 -6 0 -1 -6 10 -14z"/>
<path d="M226 822 c-10 -12 -12 -22 -6 -32 5 -8 10 -11 10 -6 0 5 10 1 23 -10
12 -10 19 -15 15 -10 -4 5 -3 15 2 21 12 15 4 41 -15 49 -7 2 -20 -3 -29 -12z"/>
<path d="M51 794 c0 -11 3 -14 6 -6 3 7 2 16 -1 19 -3 4 -6 -2 -5 -13z"/>
<path d="M14 785 c2 -11 7 -32 10 -47 4 -17 13 -28 23 -28 13 0 14 3 5 12 -7
7 -12 19 -12 28 0 9 -7 25 -16 36 -15 19 -15 19 -10 -1z"/>
<path d="M100 761 c0 -5 5 -13 10 -16 6 -3 10 -2 10 4 0 5 -4 13 -10 16 -5 3
-10 2 -10 -4z"/>
<path d="M829 664 c-7 -8 -26 -21 -43 -28 l-31 -13 42 -7 c24 -4 45 -11 48
-16 6 -10 -37 -6 -54 5 -8 4 -18 -1 -27 -14 -8 -12 -22 -21 -30 -21 -8 0 -14
-7 -14 -15 0 -18 -18 -19 -56 -5 -23 9 -31 8 -48 -11 -18 -18 -18 -21 -3 -16
9 4 17 3 17 -2 0 -10 58 -27 95 -26 19 0 29 5 28 13 -5 20 23 14 84 -19 53
-29 68 -32 168 -37 120 -5 118 -5 187 4 69 9 98 46 97 122 l0 57 -14 -43 c-21
-68 -40 -89 -84 -97 -48 -8 -67 0 -50 22 7 8 13 25 14 38 1 23 0 23 -18 7 -16
-14 -14 -7 7 36 15 30 25 56 22 59 -2 3 -11 -8 -19 -24 -22 -41 -82 -103 -101
-103 -29 0 -16 -16 22 -27 30 -8 19 -9 -58 -5 -93 4 -192 31 -206 54 -5 7 -2
9 8 5 25 -9 58 29 57 66 0 27 -2 29 -9 12 -7 -16 -9 -17 -9 -3 -2 36 22 28 76
-26 59 -58 81 -67 107 -40 23 22 20 24 -14 11 -29 -11 -32 -9 -88 46 -60 59
-81 68 -103 41z"/>
<path d="M432 634 c14 -52 38 -92 59 -97 9 -3 34 4 55 13 22 10 34 19 28 19
-13 1 -107 62 -136 88 -16 14 -16 13 -6 -23z"/>
</g>
</svg>
