<?xml version="1.0" standalone="no"?>
<!DOCTYPE svg PUBLIC "-//W3C//DTD SVG 20010904//EN"
 "http://www.w3.org/TR/2001/REC-SVG-20010904/DTD/svg10.dtd">
<svg version="1.0" xmlns="http://www.w3.org/2000/svg"
 width="150.000000pt" height="150.000000pt" viewBox="0 0 150.000000 150.000000"
 preserveAspectRatio="xMidYMid meet">

<g transform="translate(0.000000,150.000000) scale(0.100000,-0.100000)"
fill="#000000" stroke="none">
<path d="M620 1489 c0 -6 -9 -8 -20 -4 -31 10 -24 -5 27 -64 46 -52 48 -53 54
-30 6 20 7 18 8 -13 1 -21 6 -38 11 -38 6 0 10 -4 10 -10 0 -12 -77 -5 -93 8
-7 6 -42 13 -79 17 -56 6 -73 4 -94 -10 -20 -13 -28 -14 -34 -5 -6 9 -9 9 -14
-1 -5 -11 -7 -11 -12 -1 -8 17 -27 15 -21 -2 6 -14 -12 -26 -39 -26 -11 0 -13
6 -9 21 5 15 3 20 -6 17 -7 -2 -19 -29 -27 -59 -14 -56 -32 -87 -32 -55 0 9
-6 24 -14 31 -12 12 -18 9 -41 -18 -15 -18 -30 -41 -35 -52 -4 -11 -4 -92 1
-180 9 -163 5 -220 -13 -209 -6 4 -9 -5 -8 -22 4 -57 0 -74 -16 -74 -9 0 -14
6 -11 13 3 8 8 40 12 73 4 32 10 63 13 69 9 15 1 170 -9 173 -5 2 -2 10 6 19
8 8 15 26 15 41 -1 25 -2 25 -14 10 -7 -10 -20 -18 -29 -18 -25 0 -45 -71 -53
-181 -4 -62 -12 -110 -20 -119 -26 -31 3 -269 41 -331 6 -9 44 8 57 26 9 12
11 4 8 -50 -1 -22 -6 -43 -12 -46 -25 -16 75 -149 150 -200 76 -52 142 -89
157 -89 11 0 15 14 15 55 0 30 4 55 9 55 12 0 30 53 27 77 -2 10 -11 18 -20
18 -10 0 -22 8 -27 18 -8 14 -14 15 -30 6 -17 -8 -24 -7 -38 10 -16 18 -20 19
-37 7 -16 -12 -20 -12 -31 3 -15 19 -16 60 -3 81 8 13 10 13 10 -2 0 -14 6
-16 30 -12 17 4 36 1 44 -5 15 -12 92 -18 102 -8 3 3 8 40 11 82 6 76 6 76
-28 111 -18 19 -28 34 -23 34 6 0 21 -11 33 -24 12 -13 50 -36 84 -52 34 -15
56 -29 49 -32 -7 -2 -30 5 -52 16 l-40 19 0 -21 c0 -11 4 -27 9 -34 4 -7 5
-30 1 -50 -3 -21 -5 -42 -3 -48 4 -12 83 -6 100 8 7 6 20 8 28 4 17 -6 65 34
65 54 0 5 13 10 28 10 15 0 33 5 40 12 9 9 12 9 12 0 0 -7 -11 -22 -25 -34
-14 -12 -25 -31 -24 -42 0 -12 3 -15 6 -8 2 7 14 17 25 23 19 10 20 9 13 -23
-4 -18 -13 -38 -21 -44 -9 -8 -12 -21 -8 -42 8 -40 -4 -124 -17 -116 -5 3 -17
0 -25 -7 -25 -20 -28 -2 -7 41 16 31 17 40 7 40 -16 0 -18 13 -14 83 2 47 1
49 -21 42 -12 -4 -32 -16 -43 -27 -28 -26 -87 -53 -108 -50 -24 4 -34 -22 -43
-108 -4 -41 -9 -88 -10 -103 -4 -33 24 -67 55 -67 10 0 45 -7 77 -15 141 -38
334 -11 486 66 141 73 282 230 337 377 48 129 58 204 45 362 -10 125 -75 310
-110 310 -8 0 -15 9 -15 20 0 12 -11 32 -25 46 -14 14 -25 29 -25 34 0 16 -33
11 -72 -10 -21 -11 -44 -17 -53 -14 -8 3 -15 1 -15 -5 0 -6 -7 -11 -15 -11 -8
0 -15 -4 -15 -10 0 -5 -7 -10 -16 -10 -13 0 -15 6 -10 28 17 73 25 167 16 176
-7 7 -10 -6 -10 -36 0 -48 -13 -70 -24 -41 -4 9 -4 35 0 59 l6 42 -59 27 c-80
37 -120 43 -126 19 -4 -16 -5 -16 -6 -2 -1 16 -37 35 -47 25 -3 -3 2 -19 10
-36 9 -17 20 -47 25 -68 l8 -38 8 43 c13 75 21 26 10 -62 -10 -85 -24 -129
-17 -55 2 22 -1 46 -8 54 -14 17 -37 58 -69 121 -22 45 -36 54 -82 54 -27 0
-28 -1 -17 -25 6 -14 15 -25 20 -25 4 0 8 -6 8 -13 0 -7 14 -29 31 -50 17 -21
29 -41 25 -44 -3 -4 -7 -4 -9 -2 -2 2 -15 21 -30 41 -15 20 -27 41 -27 46 0 6
-13 24 -29 41 -22 24 -38 31 -65 31 -20 0 -36 -5 -36 -11z m230 -184 c7 -9 8
-15 2 -15 -5 0 -12 7 -16 15 -3 8 -4 15 -2 15 2 0 9 -7 16 -15z m117 -41 c-3
-3 -12 -4 -19 -1 -8 3 -5 6 6 6 11 1 17 -2 13 -5z m59 -26 c9 -13 -1 -19 -19
-12 -24 9 -30 33 -6 27 11 -3 22 -10 25 -15z m264 -23 c0 -8 -11 -25 -24 -38
-23 -23 -26 -24 -40 -8 -23 25 -20 38 12 49 39 15 52 14 52 -3z m-1038 -17 c8
-24 -7 -81 -22 -85 -13 -4 -13 -3 0 7 11 9 12 13 3 17 -14 5 -18 55 -6 66 10
11 20 8 25 -5z m898 -53 c0 -8 -2 -15 -4 -15 -2 0 -6 7 -10 15 -3 8 -1 15 4
15 6 0 10 -7 10 -15z m-147 -58 c-3 -31 -10 -57 -14 -57 -12 0 -11 9 2 70 14
66 20 60 12 -13z m-217 39 c19 -15 19 -15 -3 -38 -20 -20 -25 -21 -37 -8 -10
11 -11 22 -5 38 10 26 18 27 45 8z m50 -1 c-3 -9 4 -21 20 -32 18 -11 22 -18
13 -24 -8 -4 -17 -2 -23 7 -8 10 -15 11 -26 3 -11 -8 -12 -12 -3 -15 7 -3 9
-12 6 -20 -3 -8 0 -14 7 -14 6 0 8 -5 5 -10 -3 -6 0 -13 8 -16 8 -3 13 -13 10
-23 -3 -14 3 -20 24 -26 25 -6 26 -8 10 -19 -22 -17 -22 -25 3 -23 15 1 21 11
25 42 10 82 12 90 14 49 1 -34 7 -46 34 -66 45 -35 142 -83 206 -102 30 -9 65
-23 79 -32 l24 -16 -33 -17 c-31 -17 -33 -17 -51 1 -10 10 -24 18 -30 19 -7 0
-26 3 -41 5 -23 4 -28 1 -27 -13 6 -58 3 -64 -42 -57 -24 4 -58 15 -77 26 -31
17 -35 18 -51 3 -10 -9 -21 -29 -25 -43 -9 -40 -29 -82 -37 -82 -5 0 -8 -9 -8
-20 0 -11 -2 -20 -5 -20 -13 0 -94 89 -129 142 -32 48 -39 69 -44 123 -3 45
-1 65 7 65 21 0 11 18 -14 24 -14 4 -25 11 -25 16 0 16 92 12 124 -5 16 -9 30
-14 32 -12 2 1 -6 22 -17 46 -19 44 -17 66 6 57 9 -3 15 8 20 31 3 19 12 41
18 49 16 18 20 17 13 -1z m63 -29 c-3 -3 -11 5 -18 17 -13 21 -12 21 5 5 10
-10 16 -20 13 -22z m-179 -26 c0 -5 -4 -10 -9 -10 -6 0 -13 5 -16 10 -3 6 1
10 9 10 9 0 16 -4 16 -10z m-616 -86 c-3 -19 -10 -34 -15 -34 -10 0 -12 70 -2
96 11 28 25 -22 17 -62z m788 -6 c-7 -7 -12 -8 -12 -2 0 14 12 26 19 19 2 -3
-1 -11 -7 -17z m423 -196 c-3 -3 -11 0 -18 7 -9 10 -8 11 6 5 10 -3 15 -9 12
-12z m-749 -83 c3 -6 2 -15 -4 -21 -7 -7 -14 -3 -21 11 -10 17 -9 21 3 21 8 0
18 -5 22 -11z m51 -16 c2 -6 -7 -13 -21 -15 -22 -4 -24 -3 -15 14 11 20 30 20
36 1z m-167 -97 c0 -3 -4 -8 -10 -11 -5 -3 -10 -1 -10 4 0 6 5 11 10 11 6 0
10 -2 10 -4z m27 -78 c-2 -13 -4 -3 -4 22 0 25 2 35 4 23 2 -13 2 -33 0 -45z
m363 17 c0 -8 -4 -15 -10 -15 -5 0 -7 7 -4 15 4 8 8 15 10 15 2 0 4 -7 4 -15z
m-653 -62 c-3 -10 -5 -4 -5 12 0 17 2 24 5 18 2 -7 2 -21 0 -30z m288 8 c3 -5
1 -12 -5 -16 -5 -3 -10 1 -10 9 0 18 6 21 15 7z m496 -231 c-7 -31 -8 -32 -15
-13 -4 12 -4 33 0 48 10 41 24 8 15 -35z m-574 -52 c-3 -8 -6 -5 -6 6 -1 11 2
17 5 13 3 -3 4 -12 1 -19z"/>
<path d="M1231 1289 c-19 -15 -21 -23 -12 -32 8 -8 16 -6 33 11 30 30 12 48
-21 21z"/>
<path d="M301 374 c0 -11 3 -14 6 -6 3 7 2 16 -1 19 -3 4 -6 -2 -5 -13z"/>
</g>
</svg>
